<?xml version="1.0" encoding="UTF-8" standalone="no"?>
<!-- Generator: Adobe Illustrator 16.0.0, SVG Export Plug-In . SVG Version: 6.00 Build 0)  -->

<svg
   xmlns:dc="http://purl.org/dc/elements/1.1/"
   xmlns:cc="http://creativecommons.org/ns#"
   xmlns:rdf="http://www.w3.org/1999/02/22-rdf-syntax-ns#"
   xmlns:svg="http://www.w3.org/2000/svg"
   xmlns="http://www.w3.org/2000/svg"
   xmlns:sodipodi="http://sodipodi.sourceforge.net/DTD/sodipodi-0.dtd"
   xmlns:inkscape="http://www.inkscape.org/namespaces/inkscape"
   version="1.1"
   id="Capa_1"
   x="0px"
   y="0px"
   width="500.92261"
   height="238.0583"
   viewBox="0 0 500.92261 238.05831"
   xml:space="preserve"
   sodipodi:docname="logo_text_black.svg"
   inkscape:version="0.92.1 r15371"
   inkscape:export-filename="E:\Universidade\Projects\Machine Learning Academy\Media\Logo\logo_text_black.png"
   inkscape:export-xdpi="96"
   inkscape:export-ydpi="96"><metadata
   id="metadata3719"><rdf:RDF><cc:Work
       rdf:about=""><dc:format>image/svg+xml</dc:format><dc:type
         rdf:resource="http://purl.org/dc/dcmitype/StillImage" /><dc:title></dc:title></cc:Work></rdf:RDF></metadata><defs
   id="defs3717" /><sodipodi:namedview
   pagecolor="#ffffff"
   bordercolor="#666666"
   borderopacity="1"
   objecttolerance="10"
   gridtolerance="10"
   guidetolerance="10"
   inkscape:pageopacity="0"
   inkscape:pageshadow="2"
   inkscape:window-width="1538"
   inkscape:window-height="877"
   id="namedview3715"
   showgrid="false"
   inkscape:zoom="0.78650271"
   inkscape:cx="173.36954"
   inkscape:cy="273.93441"
   inkscape:window-x="54"
   inkscape:window-y="-8"
   inkscape:window-maximized="1"
   inkscape:current-layer="Capa_1"
   inkscape:pagecheckerboard="true"
   fit-margin-top="0"
   fit-margin-left="0"
   fit-margin-right="0"
   fit-margin-bottom="0"><inkscape:grid
     type="xygrid"
     id="grid3721"
     originx="-49.263883"
     originy="16.453351" /></sodipodi:namedview>
<g
   id="g3682"
   style="fill:#293744;fill-opacity:1"
   transform="translate(-23.486523,5.8831588e-5)"
   inkscape:export-xdpi="96"
   inkscape:export-ydpi="96">
	<path
   d="M 178.088,27.119 C 165.616,13.202 149.149,0.287 108.447,0.003 92.547,-0.124 68.26,3.638 49.369,23.614 37.938,35.677 29.526,50.918 31.92,75.829 c 0.52,5.406 8.24,11.659 2.813,22.091 0,0 -11.644,20.502 -11.236,23.912 0,0 -0.213,6.236 9.434,6.432 0,0 2.412,0.312 1.714,5.627 l -0.106,7.748 c 0,0 0.308,2.306 4.528,3.707 0,0 0.804,0.804 -0.402,2.322 0,0 -2.223,2.477 1.608,7.832 1.418,1.95 3.712,4.409 2.305,9.457 0,0 -1.809,9.729 2.01,12.059 0,0 4.345,5.153 21.817,2.996 6.1,-0.75 17.377,-3.706 24.104,4.734 0,0 16.071,30.535 17.289,37.758 0,0 27.426,-48.822 60.904,-56.358 0,0 -8.157,-18.389 8.429,-42.203 0,0 20.8,-27.432 21.409,-42.501 -0.013,-10e-4 5.479,-25.393 -20.452,-54.323 z"
   id="path3680"
   inkscape:connector-curvature="0"
   sodipodi:nodetypes="ccccccccccccccccccccc"
   style="fill:#293744;fill-opacity:1" />
</g>
<g
   id="g3684"
   transform="translate(-49.063883,-0.89899097)">
</g>
<g
   id="g3686"
   transform="translate(-49.063883,-0.89899097)">
</g>
<g
   id="g3688"
   transform="translate(-49.063883,-0.89899097)">
</g>
<g
   id="g3690"
   transform="translate(-49.063883,-0.89899097)">
</g>
<g
   id="g3692"
   transform="translate(-49.063883,-0.89899097)">
</g>
<g
   id="g3694"
   transform="translate(-49.063883,-0.89899097)">
</g>
<g
   id="g3696"
   transform="translate(-49.063883,-0.89899097)">
</g>
<g
   id="g3698"
   transform="translate(-49.063883,-0.89899097)">
</g>
<g
   id="g3700"
   transform="translate(-49.063883,-0.89899097)">
</g>
<g
   id="g3702"
   transform="translate(-49.063883,-0.89899097)">
</g>
<g
   id="g3704"
   transform="translate(-49.063883,-0.89899097)">
</g>
<g
   id="g3706"
   transform="translate(-49.063883,-0.89899097)">
</g>
<g
   id="g3708"
   transform="translate(-49.063883,-0.89899097)">
</g>
<g
   id="g3710"
   transform="translate(-49.063883,-0.89899097)">
</g>
<g
   id="g3712"
   transform="translate(-49.063883,-0.89899097)">
</g>
<text
   xml:space="preserve"
   style="font-style:normal;font-weight:normal;font-size:74.2454834px;line-height:1.25;font-family:sans-serif;letter-spacing:0px;word-spacing:0px;fill:#293744;fill-opacity:1;stroke:none;stroke-width:1.85613728"
   x="198.18912"
   y="65.858482"
   id="text3726"
   transform="scale(1.0243647,0.97621481)"
   inkscape:export-xdpi="96"
   inkscape:export-ydpi="96"><tspan
     sodipodi:role="line"
     x="198.18912"
     y="65.858482"
     style="font-style:normal;font-variant:normal;font-weight:normal;font-stretch:normal;font-family:Futura;-inkscape-font-specification:Futura;fill:#293744;fill-opacity:1;stroke-width:1.85613728"
     id="tspan3699">Machine</tspan><tspan
     sodipodi:role="line"
     x="198.18912"
     y="158.66534"
     id="tspan3728"
     style="font-style:normal;font-variant:normal;font-weight:normal;font-stretch:normal;font-family:Helvetica;-inkscape-font-specification:Helvetica;fill:#293744;fill-opacity:1;stroke-width:1.85613728" /></text>



<text
   xml:space="preserve"
   style="font-style:normal;font-weight:normal;font-size:69.25231171px;line-height:1.25;font-family:sans-serif;letter-spacing:0px;word-spacing:0px;fill:#293744;fill-opacity:1;stroke:none;stroke-width:1.73130763"
   x="209.85544"
   y="214.01332"
   id="text3732"
   transform="scale(0.97427836,1.0264007)"
   inkscape:export-xdpi="96"
   inkscape:export-ydpi="96"><tspan
     sodipodi:role="line"
     id="tspan3730"
     x="209.85544"
     y="214.01332"
     style="font-style:normal;font-variant:normal;font-weight:normal;font-stretch:normal;font-family:Futura;-inkscape-font-specification:Futura;fill:#293744;fill-opacity:1;stroke-width:1.73130763">Academy</tspan></text>



<text
   xml:space="preserve"
   style="font-style:normal;font-weight:normal;font-size:102.01811981px;line-height:1.25;font-family:sans-serif;letter-spacing:0px;word-spacing:0px;fill:#293744;fill-opacity:1;stroke:none;stroke-width:2.55045271"
   x="202.40926"
   y="141.68474"
   id="text3703"
   transform="scale(0.99392601,1.0061111)"
   inkscape:export-xdpi="96"
   inkscape:export-ydpi="96"><tspan
     sodipodi:role="line"
     id="tspan3701"
     x="202.40926"
     y="141.68474"
     style="font-style:normal;font-variant:normal;font-weight:normal;font-stretch:normal;font-size:74.8132782px;font-family:Futura;-inkscape-font-specification:Futura;fill:#293744;fill-opacity:1;stroke-width:2.55045271">Learning</tspan></text>


</svg>